<svg width="736" height="348" viewBox="0 0 736 348" fill="none" xmlns="http://www.w3.org/2000/svg">
<path fill-rule="evenodd" clip-rule="evenodd" d="M1.52588e-05 14.2887L11.6244 21L1.41859e-05 27.7113L12.6244 35L0.500016 42L12.6244 49L1.61529e-05 56.2887L11.6244 63L1.25766e-05 69.7113L12.6244 77L0.500016 84L12.6244 91L1.61529e-05 98.2887L11.6244 105L1.25766e-05 111.711L12.6244 119L0.500016 126L12.6244 133L9.0003e-06 140.289L11.6244 147L1.2368e-05 153.711L12.6244 161L0.50001 168L12.6244 175L9.0003e-06 182.289L11.6244 189L1.2368e-05 195.711L12.6244 203L0.50001 210L12.6244 217L9.0003e-06 224.289L11.6244 231L1.2368e-05 237.711L12.6244 245L0.50001 252L12.6244 259L1.04606e-05 266.289L11.6244 273L0 279.711L12.6244 287L0.50001 294L12.6244 301L1.04606e-05 308.289L11.6244 315L0 321.711L12.6244 329L0.50001 336L12.6244 343L3.96411 348H730.553L723.624 344L735.624 337.072V336.928L723.624 330L735.249 323.289L722.624 316L735.249 308.711L723.624 302L735.624 295.072V294.928L723.624 288L735.249 281.289L722.624 274L735.249 266.711L723.624 260L735.624 253.072V252.928L723.624 246L735.249 239.289L722.624 232L735.249 224.711L723.624 218L735.624 211.072V210.928L723.624 204L735.249 197.289L722.624 190L735.249 182.711L723.624 176L735.624 169.072V168.928L723.624 162L735.249 155.289L722.624 148L735.249 140.711L723.624 134L735.624 127.072V126.928L723.624 120L735.249 113.289L722.624 106L735.249 98.7113L723.624 92L735.624 85.0718V84.9282L723.624 78L735.249 71.2887L722.624 64L735.249 56.7113L723.624 50L735.624 43.0718V42.9282L723.624 36L735.249 29.2887L722.624 22L735.249 14.7113L723.624 8L735.624 1.0718V0H0.500016L12.6244 7L1.52588e-05 14.2887Z" fill="#D2BB69"/>
<line x1="22.6234" y1="27.9943" x2="282.625" y2="27.9943" stroke="black" stroke-width="5"/>
<line x1="451.624" y1="27.5" x2="711.626" y2="27.5" stroke="black" stroke-width="5"/>
<line x1="22.6244" y1="262.5" x2="711.627" y2="262.5" stroke="black" stroke-width="5"/>
<line x1="22.6244" y1="315.5" x2="711.627" y2="315.5" stroke="black" stroke-width="5"/>
<path d="M386.984 72.36C386.344 72.2747 385.47 72.104 384.36 71.848C383.251 71.6347 382.12 71.1867 380.968 70.504C379.816 69.8213 378.835 68.776 378.024 67.368C377.214 66.0027 376.808 64.168 376.808 61.864C376.808 59.2187 377.342 56.3173 378.408 53.16C379.518 49.96 380.862 46.632 382.44 43.176C384.019 39.72 385.534 36.3067 386.984 32.936C388.136 30.248 388.712 28.2 388.712 26.792C388.712 25.384 388.179 24.68 387.112 24.68C385.918 24.68 384.126 25.64 381.736 27.56C379.39 29.4373 376.659 32.296 373.544 36.136C372.734 37.16 371.688 38.5893 370.408 40.424C369.128 42.216 367.763 44.2213 366.312 46.44C364.862 48.616 363.432 50.8347 362.024 53.096C360.659 55.3147 359.443 57.3627 358.376 59.24C357.352 61.1173 356.606 62.6107 356.136 63.72C355.582 65.0427 354.942 65.9387 354.216 66.408C353.491 66.92 352.808 67.176 352.168 67.176C351.614 67.176 351.123 67.0267 350.696 66.728C350.312 66.4293 350.12 66.0667 350.12 65.64C350.12 65.384 350.184 65.1707 350.312 65C350.568 64.488 351.251 63.2507 352.36 61.288C353.47 59.3253 354.728 56.7227 356.136 53.48C357.544 50.1947 358.888 46.3973 360.168 42.088C361.491 37.736 362.472 32.936 363.112 27.688C363.198 27.0907 363.24 26.4507 363.24 25.768C363.24 24.2747 362.984 23.1867 362.472 22.504C361.96 21.7787 361.278 21.416 360.424 21.416C359.486 21.416 358.419 21.8213 357.224 22.632C356.03 23.4427 354.814 24.616 353.576 26.152C351.443 28.84 349.566 31.336 347.944 33.64C346.323 35.9013 344.83 38.1627 343.464 40.424C342.142 42.6853 340.819 45.096 339.496 47.656C338.216 50.216 336.851 53.096 335.4 56.296C333.95 59.4533 332.286 63.1227 330.408 67.304C330.11 67.9867 329.598 68.4773 328.872 68.776C328.19 69.0747 327.55 69.224 326.952 69.224C326.355 69.224 325.864 69.096 325.48 68.84C325.096 68.584 324.968 68.2213 325.096 67.752C326.206 66.0453 327.4 63.8907 328.68 61.288C329.96 58.6853 331.24 55.848 332.52 52.776C333.843 49.6613 335.059 46.5253 336.168 43.368C337.32 40.168 338.302 37.16 339.112 34.344C339.923 31.4853 340.478 29.0107 340.776 26.92C340.862 26.2373 340.926 25.5973 340.968 25C341.011 24.4027 341.032 23.8267 341.032 23.272C341.032 19.9867 340.328 17.64 338.92 16.232C337.555 14.824 335.784 14.12 333.608 14.12C331.774 14.12 329.768 14.5467 327.592 15.4C325.459 16.2107 323.283 17.3413 321.064 18.792C318.888 20.2427 316.798 21.928 314.792 23.848C312.787 25.7253 311.016 27.752 309.48 29.928C307.944 32.0613 306.771 34.2373 305.96 36.456C305.406 38.0347 304.979 39.5493 304.68 41C304.424 42.408 304.296 43.7307 304.296 44.968C304.296 47.3573 304.723 49.384 305.576 51.048C306.472 52.712 307.646 53.9707 309.096 54.824C310.59 55.6773 312.19 56.104 313.896 56.104C314.494 56.104 315.155 56.04 315.88 55.912C316.648 55.7413 317.288 55.5707 317.8 55.4C319.038 54.9307 320.232 54.2053 321.384 53.224C322.536 52.2 323.56 51.0267 324.456 49.704C325.352 48.3813 326.056 47.0373 326.568 45.672C327.08 44.3067 327.336 43.0267 327.336 41.832C327.336 40.5947 326.995 39.5707 326.312 38.76C325.63 37.9493 324.542 37.544 323.048 37.544C322.878 37.544 322.686 37.5653 322.472 37.608C322.302 37.608 322.11 37.608 321.896 37.608H321.704C321.406 37.608 321.128 37.5653 320.872 37.48C320.616 37.352 320.488 37.2027 320.488 37.032C320.488 36.8613 320.702 36.6693 321.128 36.456C321.598 36.2427 322.43 36.136 323.624 36.136C325.544 36.136 326.974 36.712 327.912 37.864C328.894 38.9733 329.384 40.4027 329.384 42.152C329.384 43.7307 328.958 45.4373 328.104 47.272C327.251 49.1067 325.971 50.856 324.264 52.52C322.558 54.184 320.403 55.5493 317.8 56.616C316.264 57.2133 314.771 57.512 313.32 57.512C311.187 57.512 309.16 56.9787 307.24 55.912C305.32 54.8027 303.763 53.2453 302.568 51.24C301.374 49.192 300.776 46.7813 300.776 44.008C300.776 42.7707 300.904 41.4693 301.16 40.104C301.459 38.696 301.928 37.2453 302.568 35.752C303.976 32.4667 305.875 29.4373 308.264 26.664C310.696 23.848 313.384 21.416 316.328 19.368C319.272 17.2773 322.259 15.656 325.288 14.504C328.318 13.352 331.134 12.776 333.736 12.776C336.894 12.776 339.496 13.7147 341.544 15.592C343.635 17.4693 344.68 20.4987 344.68 24.68C344.68 24.9787 344.659 25.384 344.616 25.896C344.616 26.3653 344.595 26.728 344.552 26.984C344.296 29.16 343.848 31.336 343.208 33.512C342.611 35.688 341.95 37.7787 341.224 39.784C341.096 40.1253 340.99 40.488 340.904 40.872C340.862 41.2133 340.84 41.448 340.84 41.576C340.84 41.7893 340.883 41.896 340.968 41.896C341.139 41.896 341.48 41.448 341.992 40.552C342.974 38.76 343.848 37.2027 344.616 35.88C345.427 34.5147 346.216 33.2773 346.984 32.168C347.752 31.0587 348.584 29.928 349.48 28.776C350.376 27.624 351.4 26.344 352.552 24.936C353.875 23.3573 355.39 22.0987 357.096 21.16C358.803 20.2213 360.446 19.752 362.024 19.752C363.432 19.752 364.627 20.2213 365.608 21.16C366.59 22.0987 367.08 23.6987 367.08 25.96C367.08 26.216 367.08 26.4293 367.08 26.6C367.08 26.7707 367.059 27.0267 367.016 27.368C366.632 31.464 365.822 35.496 364.584 39.464C363.347 43.3893 362.067 47.3573 360.744 51.368C362.067 49.32 363.859 46.7173 366.12 43.56C368.382 40.4027 370.856 37.1387 373.544 33.768C376.83 29.672 379.88 26.6 382.696 24.552C385.512 22.504 387.838 21.48 389.672 21.48C391.976 21.48 393.128 22.888 393.128 25.704C393.128 26.7707 392.915 28.0507 392.488 29.544C392.104 31.0373 391.486 32.616 390.632 34.28C389.694 36.1573 388.648 38.3333 387.496 40.808C386.387 43.24 385.32 45.8 384.296 48.488C383.272 51.176 382.419 53.8213 381.736 56.424C381.096 58.984 380.776 61.352 380.776 63.528C380.776 65.8747 381.31 67.7733 382.376 69.224C383.486 70.7173 385.384 71.4213 388.072 71.336H388.456C389.096 71.336 389.416 71.464 389.416 71.72C389.416 71.8907 389.203 72.0613 388.776 72.232C388.35 72.4027 387.752 72.4453 386.984 72.36ZM395.876 39.016C395.236 39.016 394.703 38.8027 394.276 38.376C393.892 37.9067 393.7 37.352 393.7 36.712C393.7 35.9013 394.02 35.1973 394.66 34.6C395.3 34.0027 396.004 33.704 396.772 33.704C397.455 33.704 398.01 33.9173 398.436 34.344C398.863 34.7707 399.076 35.2827 399.076 35.88C399.076 36.6907 398.756 37.416 398.116 38.056C397.476 38.696 396.73 39.016 395.876 39.016ZM390.692 65C389.114 65 388.004 64.552 387.364 63.656C386.724 62.7173 386.404 61.6507 386.404 60.456C386.404 59.816 386.468 59.176 386.596 58.536C386.767 57.8533 386.959 57.2347 387.172 56.68L391.46 45.736C391.588 45.3947 391.652 45.096 391.652 44.84C391.652 44.4133 391.546 44.0507 391.332 43.752C391.119 43.4107 390.97 43.176 390.884 43.048L394.404 42.92C395.044 42.8773 395.492 42.9627 395.748 43.176C396.047 43.3467 396.196 43.56 396.196 43.816C396.196 44.072 396.047 44.5413 395.748 45.224L390.436 57.704C390.436 57.704 390.308 57.9813 390.052 58.536C389.839 59.048 389.711 59.3893 389.668 59.56C389.54 60.2 389.455 60.6053 389.412 60.776C389.37 60.9467 389.348 61.0533 389.348 61.096C389.348 61.1387 389.348 61.3093 389.348 61.608C389.348 62.1627 389.476 62.632 389.732 63.016C390.031 63.4 390.522 63.592 391.204 63.592C391.631 63.592 392.122 63.464 392.676 63.208C393.231 62.952 393.636 62.696 393.892 62.44C394.959 61.3307 396.004 59.88 397.028 58.088C398.095 56.2533 399.076 54.44 399.972 52.648C400.143 52.2213 400.356 52.008 400.612 52.008C400.826 52.008 400.932 52.1573 400.932 52.456C400.932 52.6267 400.868 52.8827 400.74 53.224C400.314 54.12 399.78 55.2293 399.14 56.552C398.5 57.8747 397.732 59.1973 396.836 60.52C395.983 61.8 395.044 62.8667 394.02 63.72C392.996 64.5733 391.887 65 390.692 65ZM407.574 65.064C406.764 65.064 405.953 64.744 405.142 64.104C404.332 63.4213 403.926 62.3333 403.926 60.84C403.926 59.688 404.204 58.3653 404.758 56.872C405.27 55.4213 405.953 54.0133 406.806 52.648C407.702 51.2827 408.342 50.1733 408.726 49.32C408.854 48.9787 408.918 48.68 408.918 48.424C408.918 47.656 408.428 47.1013 407.446 46.76C406.508 46.4187 405.27 46.2267 403.734 46.184L402.966 48.296C402.497 49.6613 401.836 51.2613 400.982 53.096C400.172 54.9307 399.254 56.7013 398.23 58.408C397.249 60.1147 396.225 61.48 395.158 62.504C395.073 62.5893 394.966 62.632 394.838 62.632C394.668 62.632 394.561 62.5253 394.518 62.312C394.433 62.0987 394.518 61.8427 394.774 61.544C396.438 59.3253 397.932 56.872 399.254 54.184C400.577 51.4533 401.686 48.68 402.582 45.864C403.521 43.048 404.204 40.4453 404.63 38.056C404.758 37.3733 404.993 36.8827 405.334 36.584C405.676 36.2427 406.038 36.072 406.422 36.072C406.977 36.072 407.489 36.3493 407.958 36.904C408.428 37.416 408.662 38.1627 408.662 39.144C408.662 39.3147 408.641 39.5067 408.598 39.72C408.598 39.9333 408.577 40.1467 408.534 40.36C408.364 41.256 407.852 42.1093 406.998 42.92C406.188 43.688 405.526 44.264 405.014 44.648C405.441 44.6907 405.889 44.7333 406.358 44.776C406.828 44.776 407.34 44.776 407.894 44.776C409.9 44.776 411.884 44.648 413.846 44.392C413.932 44.648 413.974 44.84 413.974 44.968C413.974 45.5227 413.804 46.2267 413.462 47.08C413.164 47.9333 412.844 48.7013 412.502 49.384C412.332 49.768 411.99 50.472 411.478 51.496C410.966 52.4773 410.412 53.608 409.814 54.888C409.217 56.1253 408.705 57.3627 408.278 58.6C407.894 59.7947 407.702 60.8187 407.702 61.672C407.702 62.7813 408.129 63.336 408.982 63.336C409.622 63.336 410.326 62.9307 411.094 62.12C411.862 61.2667 412.609 60.2427 413.334 59.048C414.102 57.8107 414.785 56.616 415.382 55.464C416.022 54.2693 416.513 53.3307 416.854 52.648C417.025 52.2213 417.26 52.008 417.558 52.008C417.729 52.008 417.814 52.1573 417.814 52.456C417.814 52.6267 417.75 52.8827 417.622 53.224C417.153 54.2053 416.598 55.3147 415.958 56.552C415.318 57.7893 414.593 59.0053 413.782 60.2C413.014 61.3947 412.161 62.44 411.222 63.336C410.326 64.1893 409.345 64.744 408.278 65C408.15 65.0427 407.916 65.064 407.574 65.064ZM430.47 65.192C430.001 65.2347 429.467 65.128 428.87 64.872C428.273 64.616 427.739 64.1467 427.27 63.464C426.843 62.7813 426.63 61.8213 426.63 60.584C426.63 59.56 426.822 58.3227 427.206 56.872C426.694 57.6827 426.033 58.6853 425.222 59.88C424.411 61.032 423.537 62.056 422.598 62.952C421.787 63.72 421.019 64.2747 420.294 64.616C419.569 64.9573 418.907 65.128 418.31 65.128C417.201 65.128 416.305 64.6373 415.622 63.656C414.939 62.632 414.598 61.3093 414.598 59.688C414.598 57.9813 415.025 56.04 415.878 53.864C416.731 51.688 418.118 49.4267 420.038 47.08C421.275 45.5867 422.769 44.392 424.518 43.496C426.31 42.5573 428.059 42.088 429.766 42.088C430.747 42.088 431.686 42.2587 432.582 42.6C433.478 42.8987 434.267 43.4107 434.95 44.136C435.249 44.4347 435.398 44.776 435.398 45.16C435.398 45.416 435.291 45.6293 435.078 45.8C434.865 45.9707 434.587 46.0133 434.246 45.928C433.777 44.4347 432.774 43.688 431.238 43.688C430.513 43.688 429.681 43.9227 428.742 44.392C427.291 45.16 425.777 46.4187 424.198 48.168C422.662 49.9173 421.318 51.7307 420.166 53.608C419.995 53.864 419.718 54.3547 419.334 55.08C418.993 55.8053 418.651 56.616 418.31 57.512C417.969 58.408 417.734 59.2827 417.606 60.136C417.563 60.392 417.542 60.584 417.542 60.712C417.542 60.7973 417.542 60.9467 417.542 61.16C417.542 62.568 418.075 63.272 419.142 63.272C420.422 63.272 421.873 62.3333 423.494 60.456C424.603 59.0907 425.606 57.6613 426.502 56.168C427.398 54.6747 428.315 53.0747 429.254 51.368C429.894 50.216 430.491 49.256 431.046 48.488C431.601 47.72 432.39 47.336 433.414 47.336C433.883 47.336 434.353 47.4 434.822 47.528C435.291 47.656 435.782 47.6773 436.294 47.592C435.953 47.9333 435.483 48.5733 434.886 49.512C434.331 50.4507 433.734 51.5173 433.094 52.712C432.454 53.9067 431.878 55.1227 431.366 56.36C430.854 57.5973 430.491 58.664 430.278 59.56C430.235 59.816 430.171 60.1787 430.086 60.648C430.043 61.1173 430.022 61.4587 430.022 61.672C430.022 62.8667 430.363 63.464 431.046 63.464C431.729 63.464 432.454 63.0587 433.222 62.248C434.033 61.4373 434.822 60.4347 435.59 59.24C436.358 58.0453 437.062 56.8507 437.702 55.656C438.342 54.4187 438.854 53.416 439.238 52.648C439.409 52.2213 439.665 52.008 440.006 52.008C440.219 52.008 440.326 52.1573 440.326 52.456C440.326 52.584 440.262 52.8187 440.134 53.16C439.622 54.2267 439.003 55.4427 438.278 56.808C437.553 58.1307 436.763 59.432 435.91 60.712C435.057 61.9493 434.161 62.9947 433.222 63.848C432.326 64.6587 431.409 65.1067 430.47 65.192Z" fill="black"/>
<path d="M108.264 119.624V185H94.8244L61.8964 122.888V183.176H67.1764V185H54.0244V183.176H59.3044V119.624H54.0244V117.8H80.5204L105.672 165.992V119.624H100.392V117.8H113.544V119.624H108.264ZM173.891 165.608L181.859 137.96L176.099 119.624H170.627V117.8H200.387V119.624H194.723L209.027 165.032L220.547 119.624H210.851V117.8H230.051V119.624H223.715L206.051 185.96H197.507L183.299 142.568L170.819 185.96H162.467L138.275 119.624H133.763V117.8H164.963V119.624H158.243L173.891 165.608ZM272.97 155.336V148.232C272.97 136.52 272.394 129.128 271.242 126.056C269.962 122.536 268.138 120.36 265.77 119.528C264.426 119.016 262.794 118.76 260.874 118.76C258.954 118.76 257.29 119.016 255.882 119.528C254.538 120.04 253.418 120.936 252.522 122.216C251.626 123.496 250.89 124.84 250.314 126.248C249.802 127.656 249.386 129.64 249.066 132.2C248.682 135.912 248.49 141.384 248.49 148.616V155.528C248.49 163.336 248.778 168.904 249.354 172.232C249.994 175.496 250.762 177.832 251.658 179.24C253.642 182.376 256.714 183.944 260.874 183.944C265.93 183.944 269.194 181.832 270.666 177.608C272.202 173.32 272.97 165.896 272.97 155.336ZM260.682 185.96C249.994 185.96 241.994 183.08 236.682 177.32C231.434 171.496 228.81 163.112 228.81 152.168C228.81 141.16 231.626 132.52 237.258 126.248C242.954 119.912 250.986 116.744 261.354 116.744C271.722 116.744 279.53 119.752 284.778 125.768C290.09 131.72 292.746 140.2 292.746 151.208C292.746 162.216 290.058 170.76 284.682 176.84C279.37 182.92 271.37 185.96 260.682 185.96ZM328.175 151.016H323.087V183.176H329.327V185H298.127V183.176H304.367V119.624H298.127V117.8H327.119C335.439 117.8 341.327 118.248 344.783 119.144C348.303 119.976 350.767 121 352.175 122.216C355.247 124.712 356.783 128.68 356.783 134.12C356.783 139.56 355.439 143.464 352.751 145.832C350.063 148.136 345.967 149.512 340.463 149.96V150.248C345.647 150.952 349.263 152.488 351.311 154.856C353.359 157.224 354.383 161.192 354.383 166.76V171.848C354.383 175.176 354.543 177.416 354.863 178.568C355.247 179.72 356.015 180.296 357.167 180.296C358.319 180.296 359.215 179.784 359.855 178.76C360.559 177.672 361.199 175.432 361.775 172.04L363.407 172.232C362.703 177.672 361.455 181.32 359.663 183.176C357.935 185.032 354.447 185.96 349.199 185.96C343.951 185.96 340.207 184.744 337.967 182.312C335.791 179.816 334.703 175.176 334.703 168.392V161.384C334.703 157.8 334.223 155.176 333.263 153.512C332.367 151.848 330.671 151.016 328.175 151.016ZM323.087 119.624V149.192H326.159C329.807 149.192 332.495 148.072 334.223 145.832C336.015 143.592 336.911 139.944 336.911 134.888V132.104C336.911 127.048 336.047 123.72 334.319 122.12C332.655 120.456 329.967 119.624 326.255 119.624H323.087ZM433.95 150.248C433.95 163.432 430.238 172.616 422.814 177.8C415.966 182.6 406.558 185 394.59 185H367.422V183.176H373.758V119.624H367.422V117.8H397.086C409.374 117.8 418.59 120.328 424.734 125.384C430.878 130.376 433.95 138.664 433.95 150.248ZM392.478 183.176H396.126C402.59 183.176 407.198 180.904 409.95 176.36C412.766 171.752 414.174 164.072 414.174 153.32V147.752C414.174 133.352 411.422 124.68 405.918 121.736C403.294 120.328 399.582 119.624 394.782 119.624H392.478V183.176ZM456.564 117.8H484.788C494.452 117.8 501.652 119.208 506.388 122.024C511.124 124.776 513.492 129.736 513.492 136.904C513.492 144.84 510.612 150.312 504.852 153.32C499.476 156.072 491.956 157.448 482.292 157.448H481.524V183.176H493.524V185H456.564V183.176H462.804V119.624H456.564V117.8ZM481.524 119.624V155.624H483.54C487.38 155.624 490.036 154.312 491.508 151.688C492.98 149.064 493.716 144.808 493.716 138.92V134.312C493.716 128.872 493.012 125.064 491.604 122.888C490.26 120.712 487.764 119.624 484.116 119.624H481.524ZM546.846 183.176L539.838 162.44H520.83L513.438 183.176H520.638V185H505.95V183.176H510.462L534.942 117.224H542.814L567.006 183.176H571.422V185H540.03V183.176H546.846ZM530.718 135.176L521.694 160.328H539.07L530.718 135.176ZM602.293 183.944C605.493 183.944 608.309 183.08 610.741 181.352C613.237 179.624 614.485 177.032 614.485 173.576C614.485 170.056 613.141 167.368 610.453 165.512C607.829 163.656 604.053 162.056 599.125 160.712C594.261 159.304 590.709 158.088 588.469 157.064C586.293 156.04 584.213 154.696 582.229 153.032C578.261 149.704 576.277 144.552 576.277 137.576C576.277 131.88 578.293 126.984 582.325 122.888C586.421 118.792 591.989 116.744 599.029 116.744C602.421 116.744 605.941 117.256 609.589 118.28C613.301 119.24 615.605 119.72 616.501 119.72C617.397 119.72 618.197 119.08 618.901 117.8H619.957L620.629 137.192H619.093C616.021 131.624 612.789 127.176 609.397 123.848C606.069 120.456 602.421 118.76 598.453 118.76C594.549 118.76 591.509 119.688 589.333 121.544C587.157 123.336 586.069 125.768 586.069 128.84C586.069 131.848 587.349 134.184 589.909 135.848C592.533 137.448 595.733 138.76 599.509 139.784C603.285 140.808 605.749 141.512 606.901 141.896C608.117 142.28 609.589 142.824 611.317 143.528C613.109 144.168 614.549 144.872 615.637 145.64C616.789 146.344 617.973 147.272 619.189 148.424C620.469 149.512 621.461 150.728 622.165 152.072C623.893 155.144 624.757 158.792 624.757 163.016C624.757 169.928 622.581 175.496 618.229 179.72C613.941 183.88 608.277 185.96 601.237 185.96C597.589 185.96 593.397 185.48 588.661 184.52C583.989 183.56 581.397 183.08 580.885 183.08C579.989 183.08 579.125 184.04 578.293 185.96H576.949L575.989 163.112H577.621C580.437 168.68 584.021 173.544 588.373 177.704C592.789 181.864 597.429 183.944 602.293 183.944ZM657.981 183.944C661.181 183.944 663.997 183.08 666.429 181.352C668.925 179.624 670.173 177.032 670.173 173.576C670.173 170.056 668.829 167.368 666.141 165.512C663.517 163.656 659.741 162.056 654.813 160.712C649.949 159.304 646.397 158.088 644.157 157.064C641.981 156.04 639.901 154.696 637.917 153.032C633.949 149.704 631.965 144.552 631.965 137.576C631.965 131.88 633.981 126.984 638.013 122.888C642.109 118.792 647.677 116.744 654.717 116.744C658.109 116.744 661.629 117.256 665.277 118.28C668.989 119.24 671.293 119.72 672.189 119.72C673.085 119.72 673.885 119.08 674.589 117.8H675.645L676.317 137.192H674.781C671.709 131.624 668.477 127.176 665.085 123.848C661.757 120.456 658.109 118.76 654.141 118.76C650.237 118.76 647.197 119.688 645.021 121.544C642.845 123.336 641.757 125.768 641.757 128.84C641.757 131.848 643.037 134.184 645.597 135.848C648.221 137.448 651.421 138.76 655.197 139.784C658.973 140.808 661.437 141.512 662.589 141.896C663.805 142.28 665.277 142.824 667.005 143.528C668.797 144.168 670.237 144.872 671.325 145.64C672.477 146.344 673.661 147.272 674.877 148.424C676.157 149.512 677.149 150.728 677.853 152.072C679.581 155.144 680.445 158.792 680.445 163.016C680.445 169.928 678.269 175.496 673.917 179.72C669.629 183.88 663.965 185.96 656.925 185.96C653.277 185.96 649.085 185.48 644.349 184.52C639.677 183.56 637.085 183.08 636.573 183.08C635.677 183.08 634.813 184.04 633.981 185.96H632.637L631.677 163.112H633.309C636.125 168.68 639.709 173.544 644.061 177.704C648.477 181.864 653.117 183.944 657.981 183.944Z" fill="black"/>
<path d="M97.1924 273.656C97.1924 275.304 96.7284 276.452 95.8004 277.1C94.9444 277.7 93.7684 278 92.2724 278H88.8764V277.772H89.6684V269.828H88.8764V269.6H92.5844C94.1204 269.6 95.2724 269.916 96.0404 270.548C96.8084 271.172 97.1924 272.208 97.1924 273.656ZM92.0084 277.772H92.4644C93.2724 277.772 93.8484 277.488 94.1924 276.92C94.5444 276.344 94.7204 275.384 94.7204 274.04V273.344C94.7204 271.544 94.3764 270.46 93.6884 270.092C93.3604 269.916 92.8964 269.828 92.2964 269.828H92.0084V277.772ZM102.082 277.772L101.206 275.18H98.8298L97.9058 277.772H98.8058V278H96.9698V277.772H97.5338L100.594 269.528H101.578L104.602 277.772H105.154V278H101.23V277.772H102.082ZM100.066 271.772L98.9378 274.916H101.11L100.066 271.772ZM111.667 269.6L111.787 272.612H111.559C111.207 271.548 110.895 270.824 110.623 270.44C110.351 270.048 109.959 269.852 109.447 269.852H109.303V277.748H110.323V278H105.943V277.748H106.963V269.852H106.807C106.295 269.852 105.899 270.056 105.619 270.464C105.339 270.864 105.031 271.58 104.695 272.612H104.467L104.587 269.6H111.667ZM112.478 269.6H118.718L118.838 271.976H118.622C118.286 271.168 117.934 270.616 117.566 270.32C117.198 270.016 116.658 269.864 115.946 269.864H115.526V273.572H115.934C116.31 273.572 116.626 273.432 116.882 273.152C117.138 272.864 117.318 272.48 117.422 272H117.602V275.552H117.398C117.254 274.952 117.058 274.524 116.81 274.268C116.57 274.012 116.238 273.884 115.814 273.884H115.526V277.736H115.982C116.718 277.736 117.342 277.516 117.854 277.076C118.374 276.636 118.73 276.072 118.922 275.384H119.162L119.066 278H112.478V277.736H113.186V269.864H112.478V269.6Z" fill="black"/>
<path d="M307.256 269.6L307.376 272.612H307.148C306.796 271.548 306.484 270.824 306.212 270.44C305.94 270.048 305.548 269.852 305.036 269.852H304.892V277.748H305.912V278H301.532V277.748H302.552V269.852H302.396C301.884 269.852 301.488 270.056 301.208 270.464C300.928 270.864 300.62 271.58 300.284 272.612H300.056L300.176 269.6H307.256ZM308.116 269.6H311.776V269.828H311.116V277.772H311.776V278H308.116V277.772H308.776V269.828H308.116V269.6ZM318.657 269.6H321.861V269.828H321.201V277.772H321.861V278H318.201V277.772H318.861V270.272H318.813L317.013 278H315.513L313.401 270.236H313.353V277.772H314.013V278H312.381V277.772H313.041V269.828H312.381V269.6H315.621L317.217 275.78L318.657 269.6ZM322.412 269.6H328.652L328.772 271.976H328.556C328.22 271.168 327.868 270.616 327.5 270.32C327.132 270.016 326.592 269.864 325.88 269.864H325.46V273.572H325.868C326.244 273.572 326.56 273.432 326.816 273.152C327.072 272.864 327.252 272.48 327.356 272H327.536V275.552H327.332C327.188 274.952 326.992 274.524 326.744 274.268C326.504 274.012 326.172 273.884 325.748 273.884H325.46V277.736H325.916C326.652 277.736 327.276 277.516 327.788 277.076C328.308 276.636 328.664 276.072 328.856 275.384H329.096L329 278H322.412V277.736H323.12V269.864H322.412V269.6Z" fill="black"/>
<path d="M243.256 329.6L243.376 332.612H243.148C242.796 331.548 242.484 330.824 242.212 330.44C241.94 330.048 241.548 329.852 241.036 329.852H240.892V337.748H241.912V338H237.532V337.748H238.552V329.852H238.396C237.884 329.852 237.488 330.056 237.208 330.464C236.928 330.864 236.62 331.58 236.284 332.612H236.056L236.176 329.6H243.256ZM244.068 329.6H247.812V329.828H247.116V333.548H249.504V329.828H248.796V329.6H252.552V329.828H251.844V337.772H252.552V338H248.796V337.772H249.504V333.86H247.116V337.772H247.812V338H244.068V337.772H244.776V329.828H244.068V329.6ZM253.104 329.6H256.764V329.828H256.104V337.772H256.764V338H253.104V337.772H253.764V329.828H253.104V329.6ZM260.97 337.868C261.37 337.868 261.722 337.76 262.026 337.544C262.338 337.328 262.494 337.004 262.494 336.572C262.494 336.132 262.326 335.796 261.99 335.564C261.662 335.332 261.19 335.132 260.574 334.964C259.966 334.788 259.522 334.636 259.242 334.508C258.97 334.38 258.71 334.212 258.462 334.004C257.966 333.588 257.718 332.944 257.718 332.072C257.718 331.36 257.97 330.748 258.474 330.236C258.986 329.724 259.682 329.468 260.562 329.468C260.986 329.468 261.426 329.532 261.882 329.66C262.346 329.78 262.634 329.84 262.746 329.84C262.858 329.84 262.958 329.76 263.046 329.6H263.178L263.262 332.024H263.07C262.686 331.328 262.282 330.772 261.858 330.356C261.442 329.932 260.986 329.72 260.49 329.72C260.002 329.72 259.622 329.836 259.35 330.068C259.078 330.292 258.942 330.596 258.942 330.98C258.942 331.356 259.102 331.648 259.422 331.856C259.75 332.056 260.15 332.22 260.622 332.348C261.094 332.476 261.402 332.564 261.546 332.612C261.698 332.66 261.882 332.728 262.098 332.816C262.322 332.896 262.502 332.984 262.638 333.08C262.782 333.168 262.93 333.284 263.082 333.428C263.242 333.564 263.366 333.716 263.454 333.884C263.67 334.268 263.778 334.724 263.778 335.252C263.778 336.116 263.506 336.812 262.962 337.34C262.426 337.86 261.718 338.12 260.838 338.12C260.382 338.12 259.858 338.06 259.266 337.94C258.682 337.82 258.358 337.76 258.294 337.76C258.182 337.76 258.074 337.88 257.97 338.12H257.802L257.682 335.264H257.886C258.238 335.96 258.686 336.568 259.23 337.088C259.782 337.608 260.362 337.868 260.97 337.868ZM271.101 337.88C271.493 337.88 271.741 337.808 271.845 337.664C271.957 337.52 272.013 337.276 272.013 336.932V334.604H271.245V334.34H274.701V334.604H274.233V337.988H274.053C273.909 337.788 273.705 337.688 273.441 337.688C273.329 337.688 272.993 337.76 272.433 337.904C271.881 338.048 271.409 338.12 271.017 338.12C269.713 338.12 268.701 337.768 267.981 337.064C267.269 336.36 266.913 335.304 266.913 333.896C266.913 332.48 267.285 331.388 268.029 330.62C268.781 329.852 269.789 329.468 271.053 329.468C271.541 329.468 272.029 329.532 272.517 329.66C273.013 329.78 273.301 329.84 273.381 329.84C273.461 329.84 273.521 329.824 273.561 329.792C273.601 329.752 273.645 329.688 273.693 329.6H273.825L273.921 332.204H273.705C273.313 331.428 272.917 330.82 272.517 330.38C272.125 329.932 271.685 329.708 271.197 329.708C269.973 329.708 269.361 330.904 269.361 333.296V334.244C269.361 335.444 269.509 336.352 269.805 336.968C270.109 337.576 270.541 337.88 271.101 337.88ZM280.953 334.292V333.404C280.953 331.94 280.881 331.016 280.737 330.632C280.577 330.192 280.349 329.92 280.053 329.816C279.885 329.752 279.681 329.72 279.441 329.72C279.201 329.72 278.993 329.752 278.817 329.816C278.649 329.88 278.509 329.992 278.397 330.152C278.285 330.312 278.193 330.48 278.121 330.656C278.057 330.832 278.005 331.08 277.965 331.4C277.917 331.864 277.893 332.548 277.893 333.452V334.316C277.893 335.292 277.929 335.988 278.001 336.404C278.081 336.812 278.177 337.104 278.289 337.28C278.537 337.672 278.921 337.868 279.441 337.868C280.073 337.868 280.481 337.604 280.665 337.076C280.857 336.54 280.953 335.612 280.953 334.292ZM279.417 338.12C278.081 338.12 277.081 337.76 276.417 337.04C275.761 336.312 275.433 335.264 275.433 333.896C275.433 332.52 275.785 331.44 276.489 330.656C277.201 329.864 278.205 329.468 279.501 329.468C280.797 329.468 281.773 329.844 282.429 330.596C283.093 331.34 283.425 332.4 283.425 333.776C283.425 335.152 283.089 336.22 282.417 336.98C281.753 337.74 280.753 338.12 279.417 338.12ZM284.169 329.6H288.489V329.864H287.217V337.736H287.649C288.329 337.736 288.869 337.528 289.269 337.112C289.677 336.696 290.089 336.056 290.505 335.192H290.757L290.529 338H284.169V337.736H284.877V329.864H284.169V329.6ZM299.634 333.656C299.634 335.304 299.17 336.452 298.242 337.1C297.386 337.7 296.21 338 294.714 338H291.318V337.772H292.11V329.828H291.318V329.6H295.026C296.562 329.6 297.714 329.916 298.482 330.548C299.25 331.172 299.634 332.208 299.634 333.656ZM294.45 337.772H294.906C295.714 337.772 296.29 337.488 296.634 336.92C296.986 336.344 297.162 335.384 297.162 334.04V333.344C297.162 331.544 296.818 330.46 296.13 330.092C295.802 329.916 295.338 329.828 294.738 329.828H294.45V337.772ZM300.376 329.6H306.616L306.736 331.976H306.52C306.184 331.168 305.832 330.616 305.464 330.32C305.096 330.016 304.556 329.864 303.844 329.864H303.424V333.572H303.832C304.208 333.572 304.524 333.432 304.78 333.152C305.036 332.864 305.216 332.48 305.32 332H305.5V335.552H305.296C305.152 334.952 304.956 334.524 304.708 334.268C304.468 334.012 304.136 333.884 303.712 333.884H303.424V337.736H303.88C304.616 337.736 305.24 337.516 305.752 337.076C306.272 336.636 306.628 336.072 306.82 335.384H307.06L306.964 338H300.376V337.736H301.084V329.864H300.376V329.6ZM314.693 329.828V338H313.013L308.897 330.236V337.772H309.557V338H307.913V337.772H308.573V329.828H307.913V329.6H311.225L314.369 335.624V329.828H313.709V329.6H315.353V329.828H314.693ZM325.44 329.6L325.56 332.612H325.332C324.98 331.548 324.668 330.824 324.396 330.44C324.124 330.048 323.732 329.852 323.22 329.852H323.076V337.748H324.096V338H319.716V337.748H320.736V329.852H320.58C320.068 329.852 319.672 330.056 319.392 330.464C319.112 330.864 318.804 331.58 318.468 332.612H318.24L318.36 329.6H325.44ZM326.299 329.6H329.959V329.828H329.299V337.772H329.959V338H326.299V337.772H326.959V329.828H326.299V329.6ZM335.065 329.708C333.825 329.708 333.205 330.904 333.205 333.296V334.244C333.205 335.38 333.369 336.272 333.697 336.92C334.025 337.56 334.509 337.88 335.149 337.88C336.029 337.88 336.837 337.024 337.573 335.312H337.789L337.705 337.988H337.573C337.525 337.9 337.481 337.84 337.441 337.808C337.401 337.768 337.341 337.748 337.261 337.748C337.189 337.748 336.901 337.812 336.397 337.94C335.893 338.06 335.381 338.12 334.861 338.12C333.557 338.12 332.545 337.768 331.825 337.064C331.113 336.36 330.757 335.304 330.757 333.896C330.757 332.48 331.129 331.388 331.873 330.62C332.625 329.852 333.633 329.468 334.897 329.468C335.385 329.468 335.861 329.532 336.325 329.66C336.797 329.78 337.073 329.84 337.153 329.84C337.233 329.84 337.293 329.824 337.333 329.792C337.373 329.752 337.417 329.688 337.465 329.6H337.597L337.693 332.204H337.477C337.117 331.396 336.745 330.78 336.361 330.356C335.985 329.924 335.553 329.708 335.065 329.708ZM338.85 329.6H342.51V329.828H341.85V333.62L341.946 333.596L345.33 329.828H344.382V329.6H346.482V329.828H345.762L343.698 332.132L346.578 337.772H347.226V338H343.374V337.772H343.938L341.958 333.944L341.85 333.968V337.772H342.51V338H338.85V337.772H339.51V329.828H338.85V329.6ZM347.615 329.6H353.855L353.975 331.976H353.759C353.423 331.168 353.071 330.616 352.703 330.32C352.335 330.016 351.795 329.864 351.083 329.864H350.663V333.572H351.071C351.447 333.572 351.763 333.432 352.019 333.152C352.275 332.864 352.455 332.48 352.559 332H352.739V335.552H352.535C352.391 334.952 352.195 334.524 351.947 334.268C351.707 334.012 351.375 333.884 350.951 333.884H350.663V337.736H351.119C351.855 337.736 352.479 337.516 352.991 337.076C353.511 336.636 353.867 336.072 354.059 335.384H354.299L354.203 338H347.615V337.736H348.323V329.864H347.615V329.6ZM362.12 329.6L362.24 332.612H362.012C361.66 331.548 361.348 330.824 361.076 330.44C360.804 330.048 360.412 329.852 359.9 329.852H359.756V337.748H360.776V338H356.396V337.748H357.416V329.852H357.26C356.748 329.852 356.352 330.056 356.072 330.464C355.792 330.864 355.484 331.58 355.148 332.612H354.92L355.04 329.6H362.12ZM365.087 329.6H371.327L371.447 331.976H371.231C370.895 331.168 370.543 330.616 370.175 330.32C369.807 330.016 369.267 329.864 368.555 329.864H368.135V333.572H368.543C368.919 333.572 369.235 333.432 369.491 333.152C369.747 332.864 369.927 332.48 370.031 332H370.211V335.552H370.007C369.863 334.952 369.667 334.524 369.419 334.268C369.179 334.012 368.847 333.884 368.423 333.884H368.135V337.736H368.591C369.327 337.736 369.951 337.516 370.463 337.076C370.983 336.636 371.339 336.072 371.531 335.384H371.771L371.675 338H365.087V337.736H365.795V329.864H365.087V329.6ZM379.404 329.828V338H377.724L373.608 330.236V337.772H374.268V338H372.624V337.772H373.284V329.828H372.624V329.6H375.936L379.08 335.624V329.828H378.42V329.6H380.064V329.828H379.404ZM384.263 337.868C384.663 337.868 385.015 337.76 385.319 337.544C385.631 337.328 385.787 337.004 385.787 336.572C385.787 336.132 385.619 335.796 385.283 335.564C384.955 335.332 384.483 335.132 383.867 334.964C383.259 334.788 382.815 334.636 382.535 334.508C382.263 334.38 382.003 334.212 381.755 334.004C381.259 333.588 381.011 332.944 381.011 332.072C381.011 331.36 381.263 330.748 381.767 330.236C382.279 329.724 382.975 329.468 383.855 329.468C384.279 329.468 384.719 329.532 385.175 329.66C385.639 329.78 385.927 329.84 386.039 329.84C386.151 329.84 386.251 329.76 386.339 329.6H386.471L386.555 332.024H386.363C385.979 331.328 385.575 330.772 385.151 330.356C384.735 329.932 384.279 329.72 383.783 329.72C383.295 329.72 382.915 329.836 382.643 330.068C382.371 330.292 382.235 330.596 382.235 330.98C382.235 331.356 382.395 331.648 382.715 331.856C383.043 332.056 383.443 332.22 383.915 332.348C384.387 332.476 384.695 332.564 384.839 332.612C384.991 332.66 385.175 332.728 385.391 332.816C385.615 332.896 385.795 332.984 385.931 333.08C386.075 333.168 386.223 333.284 386.375 333.428C386.535 333.564 386.659 333.716 386.747 333.884C386.963 334.268 387.071 334.724 387.071 335.252C387.071 336.116 386.799 336.812 386.255 337.34C385.719 337.86 385.011 338.12 384.131 338.12C383.675 338.12 383.151 338.06 382.559 337.94C381.975 337.82 381.651 337.76 381.587 337.76C381.475 337.76 381.367 337.88 381.263 338.12H381.095L380.975 335.264H381.179C381.531 335.96 381.979 336.568 382.523 337.088C383.075 337.608 383.655 337.868 384.263 337.868ZM390.634 335.444C390.634 336.18 390.758 336.744 391.006 337.136C391.262 337.528 391.718 337.724 392.374 337.724C393.03 337.724 393.534 337.52 393.886 337.112C394.238 336.704 394.414 336.084 394.414 335.252V329.828H393.634V329.6H395.386V329.828H394.726V335.168C394.726 336.16 394.506 336.9 394.066 337.388C393.626 337.876 392.846 338.12 391.726 338.12C390.614 338.12 389.762 337.888 389.17 337.424C388.586 336.96 388.294 336.164 388.294 335.036V329.828H387.634V329.6H391.414V329.828H390.634V335.444ZM399.51 333.752H398.874V337.772H399.654V338H395.754V337.772H396.534V329.828H395.754V329.6H399.378C400.418 329.6 401.154 329.656 401.586 329.768C402.026 329.872 402.334 330 402.51 330.152C402.894 330.464 403.086 330.96 403.086 331.64C403.086 332.32 402.918 332.808 402.582 333.104C402.246 333.392 401.734 333.564 401.046 333.62V333.656C401.694 333.744 402.146 333.936 402.402 334.232C402.658 334.528 402.786 335.024 402.786 335.72V336.356C402.786 336.772 402.806 337.052 402.846 337.196C402.894 337.34 402.99 337.412 403.134 337.412C403.278 337.412 403.39 337.348 403.47 337.22C403.558 337.084 403.638 336.804 403.71 336.38L403.914 336.404C403.826 337.084 403.67 337.54 403.446 337.772C403.23 338.004 402.794 338.12 402.138 338.12C401.482 338.12 401.014 337.968 400.734 337.664C400.462 337.352 400.326 336.772 400.326 335.924V335.048C400.326 334.6 400.266 334.272 400.146 334.064C400.034 333.856 399.822 333.752 399.51 333.752ZM398.874 329.828V333.524H399.258C399.714 333.524 400.05 333.384 400.266 333.104C400.49 332.824 400.602 332.368 400.602 331.736V331.388C400.602 330.756 400.494 330.34 400.278 330.14C400.07 329.932 399.734 329.828 399.27 329.828H398.874ZM404.415 329.6H410.655L410.775 331.976H410.559C410.223 331.168 409.871 330.616 409.503 330.32C409.135 330.016 408.595 329.864 407.883 329.864H407.463V333.572H407.871C408.247 333.572 408.563 333.432 408.819 333.152C409.075 332.864 409.255 332.48 409.359 332H409.539V335.552H409.335C409.191 334.952 408.995 334.524 408.747 334.268C408.507 334.012 408.175 333.884 407.751 333.884H407.463V337.736H407.919C408.655 337.736 409.279 337.516 409.791 337.076C410.311 336.636 410.667 336.072 410.859 335.384H411.099L411.003 338H404.415V337.736H405.123V329.864H404.415V329.6ZM415.435 337.868C415.835 337.868 416.187 337.76 416.491 337.544C416.803 337.328 416.959 337.004 416.959 336.572C416.959 336.132 416.791 335.796 416.455 335.564C416.127 335.332 415.655 335.132 415.039 334.964C414.431 334.788 413.987 334.636 413.707 334.508C413.435 334.38 413.175 334.212 412.927 334.004C412.431 333.588 412.183 332.944 412.183 332.072C412.183 331.36 412.435 330.748 412.939 330.236C413.451 329.724 414.147 329.468 415.027 329.468C415.451 329.468 415.891 329.532 416.347 329.66C416.811 329.78 417.099 329.84 417.211 329.84C417.323 329.84 417.423 329.76 417.511 329.6H417.643L417.727 332.024H417.535C417.151 331.328 416.747 330.772 416.323 330.356C415.907 329.932 415.451 329.72 414.955 329.72C414.467 329.72 414.087 329.836 413.815 330.068C413.543 330.292 413.407 330.596 413.407 330.98C413.407 331.356 413.567 331.648 413.887 331.856C414.215 332.056 414.615 332.22 415.087 332.348C415.559 332.476 415.867 332.564 416.011 332.612C416.163 332.66 416.347 332.728 416.563 332.816C416.787 332.896 416.967 332.984 417.103 333.08C417.247 333.168 417.395 333.284 417.547 333.428C417.707 333.564 417.831 333.716 417.919 333.884C418.135 334.268 418.243 334.724 418.243 335.252C418.243 336.116 417.971 336.812 417.427 337.34C416.891 337.86 416.183 338.12 415.303 338.12C414.847 338.12 414.323 338.06 413.731 337.94C413.147 337.82 412.823 337.76 412.759 337.76C412.647 337.76 412.539 337.88 412.435 338.12H412.267L412.147 335.264H412.351C412.703 335.96 413.151 336.568 413.695 337.088C414.247 337.608 414.827 337.868 415.435 337.868ZM426.07 337.772L425.194 335.18H422.818L421.894 337.772H422.794V338H420.958V337.772H421.522L424.582 329.528H425.566L428.59 337.772H429.142V338H425.218V337.772H426.07ZM424.054 331.772L422.926 334.916H425.098L424.054 331.772ZM437.786 333.656C437.786 335.304 437.322 336.452 436.394 337.1C435.538 337.7 434.362 338 432.866 338H429.47V337.772H430.262V329.828H429.47V329.6H433.178C434.714 329.6 435.866 329.916 436.634 330.548C437.402 331.172 437.786 332.208 437.786 333.656ZM432.602 337.772H433.058C433.866 337.772 434.442 337.488 434.786 336.92C435.138 336.344 435.314 335.384 435.314 334.04V333.344C435.314 331.544 434.97 330.46 434.282 330.092C433.954 329.916 433.49 329.828 432.89 329.828H432.602V337.772ZM444.853 329.6H448.057V329.828H447.397V337.772H448.057V338H444.397V337.772H445.057V330.272H445.009L443.209 338H441.709L439.597 330.236H439.549V337.772H440.209V338H438.577V337.772H439.237V329.828H438.577V329.6H441.817L443.413 335.78L444.853 329.6ZM448.655 329.6H452.315V329.828H451.655V337.772H452.315V338H448.655V337.772H449.315V329.828H448.655V329.6ZM460.252 329.6L460.372 332.612H460.144C459.792 331.548 459.48 330.824 459.208 330.44C458.936 330.048 458.544 329.852 458.032 329.852H457.888V337.748H458.908V338H454.528V337.748H455.548V329.852H455.392C454.88 329.852 454.484 330.056 454.204 330.464C453.924 330.864 453.616 331.58 453.28 332.612H453.052L453.172 329.6H460.252ZM468.209 329.6L468.329 332.612H468.101C467.749 331.548 467.437 330.824 467.165 330.44C466.893 330.048 466.501 329.852 465.989 329.852H465.845V337.748H466.865V338H462.485V337.748H463.505V329.852H463.349C462.837 329.852 462.441 330.056 462.161 330.464C461.881 330.864 461.573 331.58 461.237 332.612H461.009L461.129 329.6H468.209ZM472.687 337.772L471.811 335.18H469.435L468.511 337.772H469.411V338H467.575V337.772H468.139L471.199 329.528H472.183L475.207 337.772H475.759V338H471.835V337.772H472.687ZM470.671 331.772L469.543 334.916H471.715L470.671 331.772ZM482.915 329.828V338H481.235L477.119 330.236V337.772H477.779V338H476.135V337.772H476.795V329.828H476.135V329.6H479.447L482.591 335.624V329.828H481.931V329.6H483.575V329.828H482.915ZM488.557 329.708C487.317 329.708 486.697 330.904 486.697 333.296V334.244C486.697 335.38 486.861 336.272 487.189 336.92C487.517 337.56 488.001 337.88 488.641 337.88C489.521 337.88 490.329 337.024 491.065 335.312H491.281L491.197 337.988H491.065C491.017 337.9 490.973 337.84 490.933 337.808C490.893 337.768 490.833 337.748 490.753 337.748C490.681 337.748 490.393 337.812 489.889 337.94C489.385 338.06 488.873 338.12 488.353 338.12C487.049 338.12 486.037 337.768 485.317 337.064C484.605 336.36 484.249 335.304 484.249 333.896C484.249 332.48 484.621 331.388 485.365 330.62C486.117 329.852 487.125 329.468 488.389 329.468C488.877 329.468 489.353 329.532 489.817 329.66C490.289 329.78 490.565 329.84 490.645 329.84C490.725 329.84 490.785 329.824 490.825 329.792C490.865 329.752 490.909 329.688 490.957 329.6H491.089L491.185 332.204H490.969C490.609 331.396 490.237 330.78 489.853 330.356C489.477 329.924 489.045 329.708 488.557 329.708ZM492.294 329.6H498.534L498.654 331.976H498.438C498.102 331.168 497.75 330.616 497.382 330.32C497.014 330.016 496.474 329.864 495.762 329.864H495.342V333.572H495.75C496.126 333.572 496.442 333.432 496.698 333.152C496.954 332.864 497.134 332.48 497.238 332H497.418V335.552H497.214C497.07 334.952 496.874 334.524 496.626 334.268C496.386 334.012 496.054 333.884 495.63 333.884H495.342V337.736H495.798C496.534 337.736 497.158 337.516 497.67 337.076C498.19 336.636 498.546 336.072 498.738 335.384H498.978L498.882 338H492.294V337.736H493.002V329.864H492.294V329.6Z" fill="black"/>
<path d="M554.804 269.6H558.332C559.54 269.6 560.44 269.776 561.032 270.128C561.624 270.472 561.92 271.092 561.92 271.988C561.92 272.98 561.56 273.664 560.84 274.04C560.168 274.384 559.228 274.556 558.02 274.556H557.924V277.772H559.424V278H554.804V277.772H555.584V269.828H554.804V269.6ZM557.924 269.828V274.328H558.176C558.656 274.328 558.988 274.164 559.172 273.836C559.356 273.508 559.448 272.976 559.448 272.24V271.664C559.448 270.984 559.36 270.508 559.184 270.236C559.016 269.964 558.704 269.828 558.248 269.828H557.924ZM562.482 269.6H566.802V269.864H565.53V277.736H565.962C566.642 277.736 567.182 277.528 567.582 277.112C567.99 276.696 568.402 276.056 568.818 275.192H569.07L568.842 278H562.482V277.736H563.19V269.864H562.482V269.6ZM574.562 277.772L573.686 275.18H571.31L570.386 277.772H571.286V278H569.45V277.772H570.014L573.074 269.528H574.058L577.082 277.772H577.634V278H573.71V277.772H574.562ZM572.546 271.772L571.418 274.916H573.59L572.546 271.772ZM581.913 269.708C580.673 269.708 580.053 270.904 580.053 273.296V274.244C580.053 275.38 580.217 276.272 580.545 276.92C580.873 277.56 581.357 277.88 581.997 277.88C582.877 277.88 583.685 277.024 584.421 275.312H584.637L584.553 277.988H584.421C584.373 277.9 584.329 277.84 584.289 277.808C584.249 277.768 584.189 277.748 584.109 277.748C584.037 277.748 583.749 277.812 583.245 277.94C582.741 278.06 582.229 278.12 581.709 278.12C580.405 278.12 579.393 277.768 578.673 277.064C577.961 276.36 577.605 275.304 577.605 273.896C577.605 272.48 577.977 271.388 578.721 270.62C579.473 269.852 580.481 269.468 581.745 269.468C582.233 269.468 582.709 269.532 583.173 269.66C583.645 269.78 583.921 269.84 584.001 269.84C584.081 269.84 584.141 269.824 584.181 269.792C584.221 269.752 584.265 269.688 584.313 269.6H584.445L584.541 272.204H584.325C583.965 271.396 583.593 270.78 583.209 270.356C582.833 269.924 582.401 269.708 581.913 269.708ZM585.65 269.6H591.89L592.01 271.976H591.794C591.458 271.168 591.106 270.616 590.738 270.32C590.37 270.016 589.83 269.864 589.118 269.864H588.698V273.572H589.106C589.482 273.572 589.798 273.432 590.054 273.152C590.31 272.864 590.49 272.48 590.594 272H590.774V275.552H590.57C590.426 274.952 590.23 274.524 589.982 274.268C589.742 274.012 589.41 273.884 588.986 273.884H588.698V277.736H589.154C589.89 277.736 590.514 277.516 591.026 277.076C591.546 276.636 591.902 276.072 592.094 275.384H592.334L592.238 278H585.65V277.736H586.358V269.864H585.65V269.6Z" fill="black"/>
</svg>
