<svg width="416" height="416" viewBox="0 0 416 416" fill="none" xmlns="http://www.w3.org/2000/svg">
<path fill-rule="evenodd" clip-rule="evenodd" d="M52.9998 128.8L36.9998 120.6C16.4495 160.865 10.7655 207.089 20.9488 251.133C31.1322 295.177 56.5297 334.215 92.6686 361.373C128.808 388.531 173.37 402.066 218.508 399.595C263.646 397.124 306.465 378.806 339.424 347.866C372.383 316.926 393.367 275.348 398.682 230.456C403.997 185.564 393.302 140.236 368.479 102.455C343.657 64.6738 306.299 36.8629 262.986 23.92C219.673 10.977 173.181 13.7321 131.7 31.7L138.8 48.3C176.397 32.019 218.533 29.5269 257.786 41.2628C297.04 52.9986 330.893 78.2096 353.384 112.455C375.875 146.701 385.559 187.784 380.733 228.469C375.906 269.155 356.878 306.832 327 334.865C297.121 362.898 258.308 379.488 217.398 381.715C176.488 383.941 136.105 371.659 103.361 347.034C70.6171 322.408 47.6129 287.018 38.4004 247.097C29.1879 207.175 34.3579 165.284 52.9998 128.8V128.8Z" fill="url(#paint0_linear_621_3)"/>
<path d="M94.7002 92.2999L82.0002 126.5L62.6002 95.6999L26.2002 94.2999L49.5002 66.2999L39.6002 31.1999L73.5002 44.6999L103.8 24.3999L101.4 60.7999L130 83.2999L94.7002 92.2999Z" fill="#47A8E5"/>
<defs>
<linearGradient id="paint0_linear_621_3" x1="15.9998" y1="16" x2="400" y2="400" gradientUnits="userSpaceOnUse">
<stop stop-color="#2A6BAC"/>
<stop offset="1" stop-color="#143453"/>
</linearGradient>
</defs>
</svg>
